<svg version="1.1" id="Calque_1" xmlns="http://www.w3.org/2000/svg" x="0" y="0" viewBox="0 0 340.8 500" xml:space="preserve"><style>.st0{fill:#091c3e}.st2{fill:#fff}</style><path class="st0" d="M222.8 411.6c-4.9.1-8.7 4.1-8.6 9s4.1 8.7 9 8.6h.2c4.8-.1 8.6-4 8.5-8.7v-.3c-.2-4.9-4.2-8.7-9.1-8.6zm-91.3-.7c-4.2 0-7.8 3.1-8.6 7.2H140c-.8-4.1-4.3-7.2-8.5-7.2zm-32.4 0c-5.4 0-9.7 4.4-9.7 9.8s4.4 9.7 9.8 9.7 9.7-4.4 9.7-9.7v-.1c0-5.4-4.4-9.7-9.8-9.7z"/><path class="st0" d="M0 0v500h340.8V0H0zm291.4 185.5c-17.8 37.5-37.8 70.2-63.7 102-36.1 5.5-71.3 4.7-110.1 1l25.3-40.6c20.3 1.2 40.6 1.1 60.9-.5 14.5-19.6 27.3-40.4 38.1-62.2-8.6-17-18.4-33.3-29.4-48.8l25.2-40.3c20.9 27.6 39.9 57 53.7 89.4zM257 347.7l-1.8-7.9 13.6-7.5h5.3v37.1h-8.9v-26.2l-8.2 4.5zm-117.4 14.4c2 .1 4-.3 5.8-1.2v-9.5l8.6-1.1v15.1c-1.9 1.6-6.5 4.6-14.9 4.6-12.4 0-21-8.5-21-19.1s8.5-19 21.2-19c4.7-.2 9.4.7 13.7 2.6l-2.3 8.1c-3.5-1.7-7.3-2.5-11.1-2.3-7 0-11.8 4.1-11.8 10.7s5.2 11.1 11.8 11.1zm-2-184.3c0-18.1 14.7-32.8 32.8-32.8 18.1.1 32.8 14.7 32.8 32.8s-14.7 32.8-32.8 32.8-32.8-14.7-32.8-32.8zM113.1 68.2c36.5-4.4 73.5-4.7 110.1-1l-25.4 40.6c-20.3-1.2-40.6-1.1-60.9.5-14.6 19.5-27.4 40.3-38.2 62.2 8.8 16.9 18.6 33.2 29.5 48.8L103 259.6c-21.8-28.8-39.5-56.9-53.6-89.2 16.8-36.7 38.2-71 63.7-102.2zm-3.5 264.2v37.1h-9.3v-37.1h9.3zm-16.1 29.4v7.8h-27v-37.1h9.4v29.4l17.6-.1zm-14.6 72.9h-5.7V431c-2.7 2.8-6.4 4.3-10.2 4.3-8.3 0-14.6-6-14.6-15.2v-24.2h5.9v23.9c0 6.2 4.1 10.2 9.4 10.2s9.5-4.1 9.5-10.3v-23.8H79l-.1 38.8zm20.7.7c-3.8 0-7.4-1.5-10-4.2v3.5h-5.5V396h5.5v14.1c2.6-2.7 6.2-4.2 10-4.2h1.5c8.1.4 14.4 7.3 14 15.4-.5 8.3-7.4 14.5-15.5 14.1zm32.4-4.9c3.2.1 6.3-1.5 8.1-4.1l4 2.9c-2.8 3.9-7.4 6.1-12.2 6h-.6c-8-.1-14.5-6.7-14.4-14.8 0-8 6.4-14.5 14.4-14.6 8.1 0 14.1 6.3 14.1 14.7v1.7h-22.7c.7 4.7 4.7 8.1 9.3 8.2zm31.5-19h-2.3c-3.6 0-6.2 2.8-6.2 7.2v16h-5.6v-28.2h5.3v3.4h.2c1.4-2.3 3.9-3.7 6.6-3.6h2v5.2zm-1.1-58.3v-20.8h9.3v21.5c.2 4.3 3.6 7.7 7.9 7.9 4.6.2 8.5-3.3 8.7-7.9l.1-21.5h9.3v20.8c0 11-7.1 16.8-17.6 16.8-10.6 0-17.7-5.7-17.7-16.8zm42.1 49.4h-19.8v9.4H204v6.4h-19.3v9.6h19.8v6.7h-27.2v-38.8h27.2v6.7zm3.3-70.2H235v7.8h-17.9v6.7h14.5v7.3h-14.5l.1 7.5h18.4v7.8h-27.7v-37.1h-.1zM239 434.7h-7.3v-2.6c-2.6 2.1-5.8 3.3-9.1 3.3h-.6c-7.5-.7-13.4-6.8-13.7-14.3-.4-8.3 6.1-15.3 14.4-15.7 3.3 0 6.6 1.2 9.1 3.3v-2.6l7.2-.1v28.7zm24-22.1h-8.1V426c0 1.5 1.1 2.2 2.7 2.2h5.4v6.5h-7.8c-4.9 0-7.6-3-7.6-6.9v-15.2h-5.5v-6.5h5.5V398h7.2v8.1h8.1l.1 6.5zm16.6 22.9c-9 0-13.4-4-14.3-9.9h7.2c.9 3.2 3.3 4.1 7.5 4.1 3.2 0 5.3-1.1 5.3-2.9 0-1.1-.8-1.9-3.5-2.4l-6.9-1.6c-6.3-1.3-9.2-4-9.2-8.2 0-6 5.3-9.1 12.8-9.1 8.7 0 13 3.9 13.4 9.9h-7.2c-.7-3.2-3.2-4.1-6.6-4.1-3.1 0-4.9 1-4.9 2.8 0 1.3 1.2 2 4.7 2.6l6.2 1.3c5.8 1.3 8.6 4.2 8.6 8.1-.1 5.4-4.8 9.4-13.1 9.4z"/><path d="M254.8 398h-7.2v8.1h-5.5v6.5h5.5v15.2c0 3.8 2.7 6.9 7.6 6.9h7.8v-6.5h-5.4c-1.7 0-2.7-.7-2.7-2.2v-13.4h8.1v-6.5h-8.1l-.1-8.1zm-77.4 36.7h27.1v-6.6h-19.8v-9.6H204v-6.4h-19.3v-9.5h19.8V396h-27.1v38.7zm54.3-25.9c-2.5-2.2-5.8-3.3-9.1-3.3-8.3.4-14.7 7.4-14.4 15.7.3 7.5 6.2 13.7 13.7 14.3h.6c3.3 0 6.6-1.2 9.1-3.3v2.6h7.2v-28.6l-7.2.1.1 2.5zm.1 11.6v.1c.1 4.8-3.7 8.7-8.5 8.7h-.2c-4.9.1-8.9-3.8-9-8.6-.1-4.9 3.8-8.9 8.6-9 4.9-.1 8.9 3.8 9 8.6l.1.2zm52.2-2.5l-6.2-1.3c-3.5-.7-4.7-1.3-4.7-2.6 0-1.8 1.8-2.8 4.9-2.8 3.4 0 6 .9 6.6 4.1h7.2c-.4-6-4.7-9.9-13.4-9.9-7.5 0-12.8 3.1-12.8 9.1 0 4.2 2.9 6.9 9.2 8.2l6.9 1.6c2.7.5 3.5 1.3 3.5 2.4 0 1.8-2 2.9-5.3 2.9-4.2 0-6.5-.9-7.5-4.1h-7.2c.9 6 5.3 9.9 14.3 9.9 8.3 0 13-4 13-9.5.1-3.8-2.7-6.7-8.5-8z" fill="#06c167"/><path class="st2" d="M154.9 410h-.2v-3.4h-5.3v28.2h5.6v-16c0-4.4 2.6-7.2 6.2-7.2h2.3v-5.2h-2c-2.6-.1-5.2 1.3-6.6 3.6zm-9.3 10.7c0-8.4-6-14.7-14.1-14.7-8 .1-14.5 6.6-14.4 14.6-.1 8 6.3 14.7 14.4 14.8h.6c4.8.1 9.3-2.1 12.2-6l-4-2.9c-1.9 2.6-4.9 4.1-8.1 4.1-4.7 0-8.6-3.4-9.3-8.1h22.8l-.1-1.8zm-22.7-2.6c.8-4.2 4.4-7.2 8.6-7.2 4.2.1 7.8 3.1 8.5 7.2h-17.1zm-49.8 1.8c0 6.2-4.1 10.3-9.5 10.3s-9.4-4-9.4-10.2v-23.9h-5.9v24.2c0 9.1 6.4 15.2 14.6 15.2 3.9 0 7.5-1.5 10.2-4.3v3.7h5.7v-38.7H73l.1 23.7zM101 406h-1.5c-3.7 0-7.3 1.5-10 4.2v-14.1H84v38.6h5.5v-3.5c2.6 2.7 6.3 4.2 10 4.2 8.1.4 15-5.9 15.4-14 .5-8.1-5.8-15-13.9-15.4zm7.9 14.7c0 5.4-4.3 9.7-9.7 9.7s-9.8-4.3-9.8-9.7c0-5.4 4.3-9.8 9.7-9.8s9.8 4.3 9.8 9.8zm88.8-67.5v-20.8h-9.3l-.1 21.5c-.2 4.6-4.1 8.1-8.7 7.9-4.3-.2-7.7-3.6-7.9-7.9v-21.5h-9.3v20.8c0 11 7.1 16.8 17.6 16.8 10.6 0 17.7-5.7 17.7-16.8zm37.8 8.6h-18.4v-7.5h14.5v-7.4h-14.5v-6.7H235v-7.8h-27.2v37.1h27.7v-7.7zm-96-21.5c3.8-.1 7.7.7 11.1 2.3l2.3-8.1c-4.3-1.9-9-2.8-13.7-2.6-12.6 0-21.2 8.4-21.2 19s8.5 19.1 21 19.1c8.4 0 13-3 14.9-4.6v-15.1l-8.6 1.1v9.5c-1.8.8-3.8 1.2-5.8 1.2-6.6 0-11.9-4.6-11.9-11.2s4.9-10.6 11.9-10.6zm134.7 29.2v-37.1h-5.3l-13.7 7.5 1.8 7.8 8.2-4.3v26.1h9zM66.5 332.4v37.1h27v-7.7H75.9v-29.4h-9.4zm33.8 0h9.3v37.1h-9.3v-37.1z"/><path d="M242 185.3c-10.9 21.8-23.6 42.6-38.1 62.2-20.3 1.5-40.6 1.7-60.9.5l-25.3 40.6c38.8 3.7 74 4.6 110.1-1 25.9-31.8 45.9-64.5 63.7-102-13.8-32.3-32.7-61.8-53.6-89.4l-25.2 40.3c10.9 15.4 20.7 31.8 29.3 48.8zm-113.7 33.9c-10.9-15.6-20.7-31.9-29.5-48.8 10.8-21.8 23.6-42.6 38.2-62.2 20.3-1.5 40.6-1.7 60.9-.5l25.4-40.6c-36.6-3.7-73.5-3.4-110.1 1-25.5 31.2-46.9 65.5-63.7 102.2 14.1 32.2 31.8 60.4 53.6 89.2l25.2-40.3z" fill="#cdfb0a"/><path class="st2" d="M170.4 210.6c18.1 0 32.8-14.7 32.8-32.8-.1-18.1-14.7-32.8-32.8-32.8s-32.8 14.7-32.8 32.8 14.7 32.8 32.8 32.8z"/></svg>