<svg xmlns="http://www.w3.org/2000/svg" width="70" height="77" viewBox="0 0 70 77" alt="LaLiga logo"><defs><style>.llv-character,.llv-frontball{fill:#1a1919}.llv-backball,.llv-blue,.llv-darkblue,.llv-frontball,.llv-green,.llv-orange,.llv-purple,.llv-red,.llv-yellow{fill-rule:evenodd}.llv-backball{fill:#fff}.llv-purple{fill:#812c7c}.llv-darkblue{fill:#005093}.llv-blue{fill:#008fc9}.llv-green{fill:#009949}.llv-yellow{fill:#fff101}.llv-orange{fill:#e9822c}.llv-red{fill:#d8232a}</style></defs><g fill="none" fill-rule="evenodd"><path class="llv-petal llv-purple" d="M17.569 10.492a.274.274 0 00.115.372l8.537 4.92.019.01a.277.277 0 00.383-.129 11.193 11.193 0 017.841-5.476.274.274 0 00.213-.311V9.86L32.868.237V.22a.278.278 0 00-.307-.22h-.023a21.814 21.814 0 00-8.669 3.607 21.447 21.447 0 00-6.3 6.877"></path><path class="llv-petal llv-darkblue" d="M12.715 29.094a.28.28 0 00.367.141l9.253-3.51.02-.009a.273.273 0 00.139-.378 10.913 10.913 0 01.606-9.465.287.287 0 00.028-.1.275.275 0 00-.141-.255l-.017-.009-8.738-4.614-.015-.007a.279.279 0 00-.363.098c0 .007-.008.014-.012.021a21.15 21.15 0 00-1.128 18.086"></path><path class="llv-petal llv-blue" d="M24.308 44.34a.28.28 0 00.273-.078.273.273 0 00.061-.118l2.937-9.317.006-.02a.269.269 0 00-.166-.328 11.181 11.181 0 01-4.313-2.374 11.013 11.013 0 01-2.861-3.98.278.278 0 00-.352-.134l-.013.01-9.06 3.873-.016.007a.273.273 0 00-.15.341l.01.022a21.6 21.6 0 0013.64 12.1"></path><path class="llv-petal llv-green" d="M43.7 44.861a.272.272 0 00.058-.384l-5.516-8.094-.013-.018a.278.278 0 00-.401-.05 11.356 11.356 0 01-9.489 1.513.3.3 0 00-.106 0 .277.277 0 00-.221.191l-.005.02-2.631 9.4v.015c-.01.04-.01.08 0 .12.02.096.089.175.182.207l.023.006a22.065 22.065 0 009.407.517 21.786 21.786 0 008.719-3.436"></path><path class="llv-petal llv-yellow" d="M56.298 30.3a.274.274 0 00-.271-.282l-9.9-.759h-.022a.274.274 0 00-.29.28 10.885 10.885 0 01-1.387 4.636 11.073 11.073 0 01-3.307 3.645.268.268 0 00-.054.369l.011.016 5.87 7.867.01.013a.285.285 0 00.372.066l.019-.014a21.583 21.583 0 006.267-6.955 21.037 21.037 0 002.682-8.882"></path><path class="llv-petal llv-orange" d="M52.582 11.476a.28.28 0 00-.392.028l-6.8 7.072-.015.016a.269.269 0 00.038.396 11.013 11.013 0 012.781 3.974 10.861 10.861 0 01.794 4.813c0 .034.007.068.019.1.04.097.132.163.237.17h.02l9.872.472h.017a.263.263 0 00.118-.023.275.275 0 00.166-.219v-.024a21.265 21.265 0 00-6.852-16.78"></path><path class="llv-petal llv-red" d="M35.28 2.65a.272.272 0 00-.22.323l1.455 9.7v.02c.02.104.098.187.2.214a.27.27 0 00.147.002 11.413 11.413 0 014.922.3 11.292 11.292 0 014.362 2.371.281.281 0 00.379-.031l.013-.014 6.517-7.413.011-.014A.261.261 0 0053.121 8a.273.273 0 00-.073-.266l-.018-.016A22.1 22.1 0 0035.282 2.65"></path><path class="llv-ball llv-frontball" d="M34.68 16.56a8.158 8.158 0 018.2 8.1 8.1 8.1 0 11-8.2-8.1zm6 12.661a7.351 7.351 0 001.576-4.566c0-.079-.006-.158-.006-.236-.11.337-.258.66-.443.962a4.842 4.842 0 00-.169-.665 4.582 4.582 0 00-.972-1.683l-2.267.454-.009-.025 2.117-.955a4.557 4.557 0 00-.218-1.892 5.109 5.109 0 00-.259-.636c.34.14.661.322.956.541a7.547 7.547 0 00-4.23-3.032c.31.21.593.46.838.743a5.187 5.187 0 00-.694-.047 4.719 4.719 0 00-1.906.386l-.263 2.266h-.027l-.263-2.264a4.722 4.722 0 00-1.909-.388c-.231 0-.463.016-.692.047.245-.284.528-.535.84-.744a7.547 7.547 0 00-4.233 3.037c.296-.221.619-.405.961-.545a4.877 4.877 0 00-.259.636 4.567 4.567 0 00-.219 1.89l2.12.956-.008.025-2.268-.454a4.591 4.591 0 00-.974 1.686c-.072.218-.129.44-.169.665a4.461 4.461 0 01-.445-.969c-.006.08-.006.161-.006.243 0 1.66.562 3.27 1.593 4.57a4.607 4.607 0 01-.206-1.016c.167.16.345.307.532.441a4.7 4.7 0 001.758.79l1.587-1.707.022.016-1.15 2.01c.333.564.782 1.05 1.317 1.427.188.135.384.256.588.364-.34.077-.687.117-1.035.12a7.637 7.637 0 005.077 0 4.847 4.847 0 01-1.032-.12c.204-.109.401-.23.589-.365a4.627 4.627 0 001.316-1.427l-1.149-2.009.022-.016 1.586 1.707a4.706 4.706 0 001.758-.79c.188-.135.366-.283.533-.442-.031.344-.1.683-.206 1.011zm-9.355-5.67l3.354-2.39 3.355 2.39-1.281 3.866h-4.147l-1.281-3.867z"></path><path class="llv-ball llv-backball" d="M40.68 29.224c.106-.328.175-.667.206-1.01a5.049 5.049 0 01-.533.44 4.706 4.706 0 01-1.758.791l-1.586-1.707-.022.016 1.149 2.01a4.627 4.627 0 01-1.316 1.426 5.107 5.107 0 01-.589.364c.339.077.685.117 1.032.12a7.637 7.637 0 01-5.077 0 4.823 4.823 0 001.035-.119c-.204-.108-.4-.23-.588-.364a4.633 4.633 0 01-1.317-1.427l1.15-2.01-.022-.016-1.587 1.707a4.7 4.7 0 01-1.758-.79 4.979 4.979 0 01-.532-.44c.03.344.1.685.206 1.014a7.356 7.356 0 01-1.587-4.812c.11.34.258.665.445.97.04-.226.097-.449.169-.666.2-.625.533-1.2.974-1.686l2.268.454.008-.025-2.12-.956a4.567 4.567 0 01.219-1.89c.071-.218.158-.43.259-.636-.342.14-.665.323-.961.545a7.547 7.547 0 014.233-3.037c-.312.21-.595.46-.84.744.23-.031.46-.047.692-.047a4.722 4.722 0 011.909.388l.263 2.264h.027l.263-2.266a4.719 4.719 0 011.906-.386c.232 0 .464.016.694.047a4.252 4.252 0 00-.838-.743 7.547 7.547 0 014.23 3.032 4.427 4.427 0 00-.956-.54c.1.205.187.418.259.635.205.608.28 1.253.218 1.892l-2.117.955.009.025 2.267-.454c.44.485.772 1.06.972 1.683.072.218.128.44.169.665.185-.302.334-.625.443-.962 0 .078.006.157.006.236a7.351 7.351 0 01-1.576 4.566zm-9.35-5.674l1.281 3.867h4.147l1.281-3.867-3.355-2.39-3.354 2.39z"></path></g></svg>