<?xml version="1.0" encoding="utf-8"?>
<!-- Generator: Adobe Illustrator 24.2.0, SVG Export Plug-In . SVG Version: 6.00 Build 0)  -->
<svg version="1.1" id="Layer_1" xmlns="http://www.w3.org/2000/svg" xmlns:xlink="http://www.w3.org/1999/xlink" x="0px" y="0px"
	 viewBox="0 0 234 412.5" style="enable-background:new 0 0 234 412.5;" xml:space="preserve">
<style type="text/css">
	.st0{fill:#FFFFFF;}
	.st1{fill:#024494;}
	.st2{fill:#FF1F11;}
	.st3{fill:#00BE1B;}
	.st4{fill:#E40D2C;}
	.st5{fill-rule:evenodd;clip-rule:evenodd;fill:url(#SVGID_1_);}
	.st6{fill-rule:evenodd;clip-rule:evenodd;fill:url(#SVGID_2_);}
	.st7{fill-rule:evenodd;clip-rule:evenodd;fill:url(#SVGID_3_);}
	.st8{fill-rule:evenodd;clip-rule:evenodd;fill:url(#SVGID_4_);}
	.st9{fill-rule:evenodd;clip-rule:evenodd;fill:url(#SVGID_5_);}
	.st10{fill-rule:evenodd;clip-rule:evenodd;fill:url(#SVGID_6_);}
	.st11{fill:#008FD7;}
	.st12{fill:#002D71;}
</style>
<g transform="matrix(.09211422 0 0 .09211422 2 2)">
	<path class="st0" d="M1959.8,4434.2H537.1c-296.7,0-537.1-240.4-537.1-537V537.1C0,240.4,240.4,0,537.1,0h1422.7
		c296.6,0,537.1,240.4,537.1,537.1v3360.1C2496.8,4193.8,2256.4,4434.2,1959.8,4434.2L1959.8,4434.2z"/>
	<path class="st1" d="M0,3484.3v412.9c0,296.6,240.4,537.1,537.1,537.1h1422.7c296.6,0,537.1-240.4,537.1-537.1v-412.9L0,3484.3z"/>
	<path class="st2" d="M2155.2,3681.6h-33.5c-42.9,0-45.7,4.7-49,12.3l-66.4,159.3c-22.1,52.8-44.8,109.8-53.7,139
		c-8-29.7-22.6-68.8-53.7-141.8l-66.4-156.4c-4.2-9.4-20.7-12.3-57-12.3h-37.7c-36.8,0-44.3,3.3-44.3,10.8v480.2
		c0,9,7.5,10.8,45.7,10.8h20.7c37.7,0,48.1-1.9,48.1-10.8V3888h2.8c0,0,3.3,13.2,9,25.4l76.3,178.6c3.3,8,7.5,11.3,42.9,11.3h22.6
		c36.3,0,38.6-2.8,41.9-11.3l69.7-172c6.6-16,11.3-32,11.3-32h2.8v285c0,9,7.1,10.8,46.6,10.8h20.3c36.8,0,47.6-1.9,47.6-10.8
		v-480.6C2202.8,3684.9,2192,3681.6,2155.2,3681.6"/>
	<path class="st0" d="M1600.2,3692.4c0-7.5-10.4-10.8-47.6-10.8h-21.2c-38.6,0-45.7,3.3-45.7,10.8v480.2c0,9,6.6,10.8,45.7,10.8
		h21.7c36.8,0,47.6-1.9,47.6-10.8L1600.2,3692.4z"/>
	<path class="st3" d="M1396.1,3681.6c9.9,0,12.3,1.4,12.3,36.8v33c0,33.9-2.8,38.2-12.3,38.2h-113.6v383.1c0,9-10.8,10.8-49,10.8
		h-20.3c-38.6,0-45.7-1.9-45.7-10.8v-383.1h-113.6c-9.4,0-12.3-2.8-12.3-38.2v-33c0-36.8,1.9-36.8,11.8-36.8H1396.1z"/>
	<path class="st4" d="M548,4076H336.9c-8,0-15.1,3.3-20.3,8.5c-5.2,5.2-8.5,12.3-8.5,20.3v49.5c0,8,3.3,15.1,8.5,20.3
		c5.2,5.2,12.3,8.5,20.3,8.5H548V4076z M900,4084.5c-5.2-5.2-12.3-8.5-20.3-8.5H668.6v107h211.1c8,0,15.5-3.3,20.3-8.5
		c5.2-5.2,8.5-12.3,8.5-20.3v-49.5C908.5,4096.7,905.2,4089.6,900,4084.5 M900,3887.5c-5.2-5.2-12.3-8.5-20.3-8.5H668.6v107.4h211.1
		c8,0,15.5-3.3,20.3-8.5c5.2-5.2,8.5-12.3,8.5-20.3v-49.5C908.5,3899.7,905.2,3892.7,900,3887.5 M548,3879H336.9
		c-8,0-15.1,3.3-20.3,8.5c-5.2,5.2-8.5,12.3-8.5,20.3v49.5c0,8,3.3,15.1,8.5,20.3c5.2,5.2,12.3,8.5,20.3,8.5H548V3879z M879.7,3789
		H336.9c-8,0-15.1-3.3-20.3-8.5c-5.2-5.2-8.5-12.3-8.5-20.3v-49.5c0-8,3.3-15.1,8.5-20.3c5.2-5.2,12.3-8.5,20.3-8.5h542.8
		c8,0,15.5,3.3,20.3,8.5c5.2,5.2,8.5,12.3,8.5,20.3v49.5c0,8-3.3,15.1-8.5,20.3S887.7,3789,879.7,3789"/>
	
		<linearGradient id="SVGID_1_" gradientUnits="userSpaceOnUse" x1="23275.3809" y1="-41512.9219" x2="24238.4453" y2="-42068.9492" gradientTransform="matrix(9.211422e-02 0 0 -9.211422e-02 -1772.1 -1709.173)">
		<stop  offset="0" style="stop-color:#147AD1"/>
		<stop  offset="1" style="stop-color:#002D71"/>
	</linearGradient>
	<polygon class="st5" points="309.8,2222.3 1254,2811 882,2222.3 	"/>
	
		<linearGradient id="SVGID_2_" gradientUnits="userSpaceOnUse" x1="41992.0469" y1="-41220.9063" x2="41087.3164" y2="-41854.4063" gradientTransform="matrix(9.211422e-02 0 0 -9.211422e-02 -1772.1 -1709.173)">
		<stop  offset="0" style="stop-color:#147AD1"/>
		<stop  offset="1" style="stop-color:#002D71"/>
	</linearGradient>
	<polygon class="st6" points="1617.8,2222.3 1254,2811 2190.1,2222.3 	"/>
	
		<linearGradient id="SVGID_3_" gradientUnits="userSpaceOnUse" x1="30701.6641" y1="-45951.4492" x2="31260.1719" y2="-45628.9961" gradientTransform="matrix(9.211422e-02 0 0 -9.211422e-02 -1772.1 -1709.173)">
		<stop  offset="0" style="stop-color:#147AD1"/>
		<stop  offset="1" style="stop-color:#002D71"/>
	</linearGradient>
	<polygon class="st7" points="882,2222.3 1254,2811 1254,2222.3 	"/>
	
		<linearGradient id="SVGID_4_" gradientUnits="userSpaceOnUse" x1="34775.7578" y1="-39932.5469" x2="34294.7969" y2="-39595.7734" gradientTransform="matrix(9.211422e-02 0 0 -9.211422e-02 -1772.1 -1709.173)">
		<stop  offset="0" style="stop-color:#147AD1"/>
		<stop  offset="1" style="stop-color:#002D71"/>
	</linearGradient>
	<polygon class="st8" points="1249.9,1204.5 882,2222.3 1254,2222.3 	"/>
	
		<linearGradient id="SVGID_5_" gradientUnits="userSpaceOnUse" x1="31714.1113" y1="-36040.5273" x2="32406.9609" y2="-36733.375" gradientTransform="matrix(9.211422e-02 0 0 -9.211422e-02 -1772.1 -1709.173)">
		<stop  offset="0" style="stop-color:#147AD1"/>
		<stop  offset="1" style="stop-color:#002D71"/>
	</linearGradient>
	<polygon class="st9" points="1249.9,1204.5 1254,2222.3 1617.8,2222.3 	"/>
	
		<linearGradient id="SVGID_6_" gradientUnits="userSpaceOnUse" x1="37003.1523" y1="-42969.0469" x2="36482.4414" y2="-43333.6523" gradientTransform="matrix(9.211422e-02 0 0 -9.211422e-02 -1772.1 -1709.173)">
		<stop  offset="0" style="stop-color:#147AD1"/>
		<stop  offset="1" style="stop-color:#002D71"/>
	</linearGradient>
	<polygon class="st10" points="1254,2222.3 1254,2811 1617.8,2222.3 	"/>
	<path class="st11" d="M2190.1,2222.3L2190.1,2222.3L1442,481c-171.7,0-212.6,0-388.3,0L309.8,2222.3H882l367.9-1017.8l171.7,474.2
		h-171.7l-98.1,294.3h376.1l89.9,249.3H2190.1z"/>
	<path class="st12" d="M427.5,3320.9c-28.2,0-55.5-4.9-81.9-14.6c-26.4-9.7-47.1-21.9-62.1-36.6c-2.9-2.9-3.1-6-0.6-9.3l41.8-47.8
		c2.2-2.9,4.9-3.1,8.2-0.5c32.2,25.7,64.9,38.5,97.8,38.5c19,0,34-4,44.8-12.1s16.2-18.9,16.2-32.4c0-11.7-4.3-20.9-12.9-27.5
		s-23.6-11.4-44.8-14.3l-19.8-2.7c-78.8-11-118.2-48.4-118.2-112.1c0-34.4,12-62.1,36-83s56.1-31.3,96.5-31.3c50.9,0,93.3,13,127,39
		c3.3,2.2,3.7,4.9,1.1,8.2l-33.5,50c-2.2,2.9-4.8,3.5-7.7,1.6c-29.3-19-58.3-28.6-86.8-28.6c-16.1,0-28.5,3.8-37.1,11.3
		c-8.6,7.5-12.9,17.3-12.9,29.4c0,11,4.5,19.9,13.5,26.7c9,6.8,23.9,11.6,44.8,14.6l19.8,2.7c78.4,10.6,117.6,48.4,117.6,113.2
		c0,35.2-12.7,63.6-38.2,85.2C510.6,3310,474.4,3320.9,427.5,3320.9L427.5,3320.9z"/>
	<path class="st12" d="M629.8,3309.3v-362.8c0-3.7,1.8-5.5,5.5-5.5h239.6c3.7,0,5.5,1.8,5.5,5.5v58.8c0,3.7-1.8,5.5-5.5,5.5h-161
		c-2.2,0-3.3,1.1-3.3,3.3v74.2c0,2.2,1.1,3.3,3.3,3.3H848c3.7,0,5.5,1.8,5.5,5.5v58.3c0,3.7-1.8,5.5-5.5,5.5H713.9
		c-2.2,0-3.3,1.1-3.3,3.3v77.5c0,2.2,1.1,3.3,3.3,3.3H875c3.7,0,5.5,1.8,5.5,5.5v58.8c0,3.7-1.8,5.5-5.5,5.5H635.3
		C631.6,3314.8,629.8,3313,629.8,3309.3L629.8,3309.3z"/>
	<path class="st12" d="M1234,3314.8h-78.1c-4,0-6.8-1.8-8.2-5.5l-64.3-136.9h-50c-2.2,0-3.3,1.1-3.3,3.3v133.6
		c0,3.7-1.8,5.5-5.5,5.5h-69.8c-3.7,0-5.5-1.8-5.5-5.5v-362.8c0-3.7,1.8-5.5,5.5-5.5h149c38.1,0,68.8,10.7,92.1,32.2
		c23.3,21.4,34.9,49.4,34.9,83.8c0,23.8-5.9,44.8-17.6,62.9c-11.7,18.1-28,31.8-48.9,41l73.7,147.3c0.7,1.5,0.7,2.9,0,4.4
		C1237.1,3314.1,1235.8,3314.8,1234,3314.8z M1099.3,3103.7c15.4,0,27.7-4.2,36.8-12.6c9.2-8.4,13.7-19.8,13.7-34.1
		c0-13.9-4.6-25.1-13.7-33.5c-9.2-8.4-21.4-12.6-36.8-12.6h-66c-2.2,0-3.3,1.1-3.3,3.3v86.3c0,2.2,1.1,3.3,3.3,3.3L1099.3,3103.7
		L1099.3,3103.7z"/>
	<path class="st12" d="M1295.3,3309.3v-362.8c0-3.7,1.8-5.5,5.5-5.5h69.8c3.7,0,5.5,1.8,5.5,5.5v362.8c0,3.7-1.8,5.5-5.5,5.5h-69.8
		C1297.1,3314.8,1295.3,3313,1295.3,3309.3z"/>
	<path class="st12" d="M1456.2,3309.3v-362.8c0-3.7,1.8-5.5,5.5-5.5h239.6c3.7,0,5.5,1.8,5.5,5.5v58.8c0,3.7-1.8,5.5-5.5,5.5h-161.1
		c-2.2,0-3.3,1.1-3.3,3.3v74.2c0,2.2,1.1,3.3,3.3,3.3h134.1c3.7,0,5.5,1.8,5.5,5.5v58.3c0,3.7-1.8,5.5-5.5,5.5h-134.1
		c-2.2,0-3.3,1.1-3.3,3.3v77.5c0,2.2,1.1,3.3,3.3,3.3h161.1c3.7,0,5.5,1.8,5.5,5.5v58.8c0,3.7-1.8,5.5-5.5,5.5h-239.6
		C1458.1,3314.8,1456.2,3313,1456.2,3309.3L1456.2,3309.3z"/>
	<path class="st12" d="M1879.4,3309.3l128.6-362.8c1.1-3.7,3.5-5.5,7.1-5.5h69.3c3.7,0,6,1.8,7.1,5.5l126.4,362.8
		c1.1,3.7-0.2,5.5-3.8,5.5h-71.5c-3.7,0-6-1.8-7.1-5.5l-21.4-65.4h-130.8l-20.9,65.4c-1.1,3.7-3.5,5.5-7.1,5.5h-72
		C1879.5,3314.8,1878.3,3313,1879.4,3309.3L1879.4,3309.3z M2005.8,3175.2h86.3l-42.3-130.8h-1.7L2005.8,3175.2z"/>
</g>
</svg>
